<?xml version="1.0" ?>

<!-- Uploaded to: SVG Repo, www.svgrepo.com, Generator: SVG Repo Mixer Tools -->
<svg width="800px" height="800px" viewBox="0 0 281.25 281.25" id="svg2" version="1.1" xml:space="preserve" xmlns="http://www.w3.org/2000/svg" xmlns:cc="http://creativecommons.org/ns#" xmlns:dc="http://purl.org/dc/elements/1.1/" xmlns:rdf="http://www.w3.org/1999/02/22-rdf-syntax-ns#" xmlns:svg="http://www.w3.org/2000/svg">

<defs id="defs4"/>

<g id="layer1" transform="translate(6984.8564,-3399.5356)">

<g id="g19544" transform="translate(-2254.8251,-358.73635)">

<path d="m -4555.7561,3790.6272 c -12.4453,1.8285 -23.7972,9.0681 -30.7013,19.5831 -5.5623,8.4716 -8.0838,18.7666 -7.0697,28.8501 a 4.6875,4.6875 0 0 0 5.1325,4.195 4.6875,4.6875 0 0 0 4.1949,-5.1325 c -0.7932,-7.8872 1.2302,-16.1391 5.5811,-22.7655 5.3767,-8.1888 14.5346,-14.0318 24.2267,-15.4559 a 4.6875,4.6875 0 0 0 3.9551,-5.3174 4.6875,4.6875 0 0 0 -5.3193,-3.9569 z" id="path2297" style="color:#000000;fill:#333333;fill-opacity:1;stroke-linecap:round;stroke-linejoin:round;-inkscape-stroke:none"/>

<path d="m -4620.9324,3789.08 c -1.1976,-0.019 -2.3957,0 -3.5926,0.06 -3.1917,0.1584 -6.3716,0.5964 -9.4977,1.3202 a 4.6875,4.6875 0 0 0 -0.3515,0.1428 4.6875,4.6875 0 0 0 -0.6757,0.2728 4.6875,4.6875 0 0 0 -0.6244,0.3809 4.6875,4.6875 0 0 0 -0.5529,0.4651 4.6875,4.6875 0 0 0 -0.4761,0.5511 4.6875,4.6875 0 0 0 -0.39,0.6244 4.6875,4.6875 0 0 0 -0.2784,0.6647 4.6875,4.6875 0 0 0 -0.1776,0.7086 4.6875,4.6875 0 0 0 -0.06,0.7324 4.6875,4.6875 0 0 0 -0.031,0.3717 c 0.9,12.0915 7.4118,23.4138 17.4115,30.271 7.7511,5.3152 17.251,7.6649 26.5466,6.8262 0.1615,-3.2539 0.6805,-6.4812 1.5399,-9.6185 -7.8155,1.3063 -16.2706,-0.472 -22.7838,-4.9384 -6.3957,-4.3858 -11.0487,-11.4662 -12.7386,-19.0777 9.0581,-1.1713 18.5426,0.4399 26.6418,4.6179 4.7806,2.466 9.1175,5.8224 12.7387,9.8089 0.5679,-1.0405 1.1749,-2.0605 1.8273,-3.0542 1.1094,-1.6894 2.3444,-3.284 3.6695,-4.7955 -4.0612,-4.1401 -8.7742,-7.6295 -13.9362,-10.2923 -7.4859,-3.8616 -15.8259,-5.9091 -24.2083,-6.0425 z m 27.1984,44.978 c -3.2486,0.3875 -6.4229,1.3369 -9.3292,2.8839 -4.46,2.3738 -8.169,5.9987 -10.6457,10.4022 -2.4183,4.2999 -3.4452,8.8375 -4.2298,12.9786 -0.7826,4.1309 -1.3555,7.9476 -2.4811,11.2371 -2.1646,6.3257 -6.75,12.0679 -11.9567,17.5855 -5.2215,5.5334 -11.2142,11.068 -15.9613,18.1549 -5.5686,8.3129 -8.7769,18.0316 -9.56,27.9144 -0.7826,9.8745 0.8409,19.8166 4.3982,28.9618 4.7844,12.2996 13.0774,23.1405 23.6957,30.9778 10.6183,7.8373 23.4212,12.5675 36.5845,13.515 a 4.6875,4.6875 0 0 0 0.091,-0.018 4.6875,4.6875 0 0 0 0.081,0.026 c 14.4317,0.5153 28.9094,-3.5381 40.9735,-11.4752 12.0642,-7.9372 21.518,-19.6282 26.7572,-33.0853 3.5605,-9.1452 5.1848,-19.0868 4.4019,-28.9618 -0.7837,-9.8835 -3.9926,-19.6018 -9.5618,-27.9144 -4.7477,-7.0864 -10.7398,-12.6214 -15.9613,-18.1549 -5.2065,-5.5176 -9.7941,-11.258 -11.9586,-17.5837 -1.1256,-3.2896 -1.6984,-7.1078 -2.4811,-11.239 -0.7846,-4.1411 -1.8115,-8.6786 -4.2298,-12.9785 -2.4766,-4.4035 -6.1876,-8.0266 -10.6475,-10.4004 -2.6894,-1.4314 -5.6065,-2.3584 -8.6005,-2.7997 -0.025,1.3503 0.021,2.7004 0.1556,4.0393 a 4.6875,4.6875 0 0 1 -3.7921,5.0702 c 0.2807,0 0.5609,-0.024 0.8423,-0.01 2.4335,0.1577 4.8531,0.8333 6.9891,1.9703 2.8482,1.516 5.2996,3.9076 6.8811,6.7199 1.565,2.7829 2.4634,6.2863 3.1916,10.1294 0.7299,3.8528 1.3164,8.1309 2.8216,12.5299 2.8923,8.4528 8.496,15.1394 14.0094,20.9821 5.4986,5.8272 11.0446,11.0489 14.9909,16.9391 4.6106,6.8816 7.3433,15.0873 8.0053,23.4356 0.6627,8.3569 -0.7173,16.924 -3.7921,24.8218 -4.5176,11.6036 -12.7713,21.8085 -23.1738,28.6524 -10.3703,6.8227 -22.9637,10.3629 -35.3705,9.9444 -11.3425,-0.8264 -22.4888,-4.9467 -31.6388,-11.7004 -9.1639,-6.7638 -16.3988,-16.2191 -20.5279,-26.8341 -3.0726,-7.8991 -4.4508,-16.4667 -3.7885,-24.8236 0.6615,-8.3483 3.392,-16.5561 8.0017,-23.4375 3.9457,-5.8903 9.4941,-11.1121 14.9927,-16.9391 5.5133,-5.8426 11.1169,-12.5292 14.0094,-20.9821 1.5052,-4.3989 2.0918,-8.6769 2.8217,-12.5299 0.7281,-3.8429 1.6246,-7.3429 3.1897,-10.1257 1.5817,-2.8124 4.031,-5.2077 6.8792,-6.7237 2.8481,-1.5158 6.2008,-2.2085 9.4171,-1.95 a 4.6875,4.6875 0 0 0 0.2454,-0.046 4.6875,4.6875 0 0 1 -4.5319,-4.1602 c -0.1674,-1.6647 -0.23,-3.3353 -0.2069,-5.0024 z m -32.3217,102.301 a 4.6875,4.6875 0 0 0 -4.6619,4.715 c 0.071,12.3639 6.5125,24.2233 16.8457,31.0126 6.3312,4.1599 13.8666,6.312 21.4398,6.1248 a 4.6875,4.6875 0 0 0 4.5703,-4.801 4.6875,4.6875 0 0 0 -4.801,-4.5703 c -5.6241,0.1391 -11.3584,-1.5014 -16.0602,-4.5904 -7.5762,-4.9779 -12.5675,-14.1637 -12.6196,-23.2288 a 4.6875,4.6875 0 0 0 -4.7131,-4.6619 z" id="path2238" style="color:#000000;fill:#2aff2a;fill-opacity:1;stroke-linecap:round;stroke-linejoin:round;-inkscape-stroke:none"/>

</g>

</g>

</svg>