<?xml version="1.0" ?>

<!-- Uploaded to: SVG Repo, www.svgrepo.com, Generator: SVG Repo Mixer Tools -->
<svg width="800px" height="800px" viewBox="0 0 281.25 281.25" id="svg2" version="1.1" xml:space="preserve" xmlns="http://www.w3.org/2000/svg" xmlns:cc="http://creativecommons.org/ns#" xmlns:dc="http://purl.org/dc/elements/1.1/" xmlns:rdf="http://www.w3.org/1999/02/22-rdf-syntax-ns#" xmlns:svg="http://www.w3.org/2000/svg">

<defs id="defs4"/>

<g id="layer1" transform="translate(7276.1064,-3399.5356)">

<g id="g18549" transform="translate(-2241.5651,-358.91729)">

<path d="m -4856.0325,3833.234 c -11.0448,0.037 -21.9032,4.1447 -30.207,11.4276 -8.3038,7.2829 -13.7958,17.5142 -15.2728,28.4601 a 4.6875,4.6875 0 0 0 0.017,0.2674 4.6875,4.6875 0 0 0 -0.057,0.3588 v 67.6026 c -0.059,8.2505 -4.603,16.6275 -11.4862,21.1761 -4.4362,2.9316 -9.8962,4.4458 -15.2087,4.2188 a 4.6875,4.6875 0 0 0 -0.035,0 4.6875,4.6875 0 0 0 -0.1666,-0.01 h -27.4146 c -5.2229,-0.2908 -10.3755,1.5077 -14.2767,5.0025 -3.9707,3.557 -6.3421,8.593 -6.5552,13.9196 -0.224,5.5989 1.9577,11.0591 5.9784,14.9616 3.9581,3.8417 9.3701,5.8516 14.87,5.5408 h 58.9819 a 4.6875,4.6875 0 0 0 0.3113,-0.05 4.6875,4.6875 0 0 0 0.2161,0.018 c 15.3444,-1.7373 30.2054,-7.2472 42.973,-15.9338 17.5634,-11.9496 30.8832,-29.8306 37.3059,-50.0794 a 4.6875,4.6875 0 0 0 0.097,-0.3936 4.6875,4.6875 0 0 0 0.024,-0.064 c 3.4516,-16.5064 5.06,-33.3941 4.7863,-50.2551 -0.1467,-9.0328 -0.8316,-18.055 -2.0507,-27.0063 a 4.6875,4.6875 0 0 0 0,-0.015 4.6875,4.6875 0 0 0 -0.3314,-1.1939 c -0.028,-0.065 -0.06,-0.1289 -0.088,-0.1941 -2e-4,-5e-4 2e-4,0 0,0 -3.5483,-8.1994 -9.4834,-15.2744 -16.9483,-20.1855 -7.5248,-4.9505 -16.4519,-7.6086 -25.4589,-7.5788 z m 0.031,9.375 c 7.128,-0.024 14.3205,2.1176 20.2752,6.0352 5.7862,3.8067 10.4885,9.353 13.3191,15.6775 1.1138,8.3671 1.7453,16.7996 1.8824,25.2392 0.261,16.0788 -1.2663,32.1892 -4.5392,47.9334 -5.797,18.1098 -17.8531,34.2581 -33.5742,44.9542 -11.4283,7.7754 -24.7964,12.7503 -38.5273,14.3427 h -58.7475 a 4.6875,4.6875 0 0 0 -0.141,0.022 4.6875,4.6875 0 0 0 -0.1868,-0.011 c -2.8268,0.1977 -5.9135,-0.9304 -7.9468,-2.904 -2.0333,-1.9734 -3.2535,-5.0277 -3.1402,-7.8589 0.1081,-2.7027 1.4279,-5.5067 3.4424,-7.3114 2.0146,-1.8047 4.9464,-2.8108 7.6446,-2.6221 a 4.6875,4.6875 0 0 0 0.1483,-0.01 4.6875,4.6875 0 0 0 0.1795,0.02 h 27.4255 c 7.2768,0.2768 14.5393,-1.7522 20.6159,-5.7678 9.6228,-6.3591 15.6111,-17.399 15.6939,-28.9325 a 4.6875,4.6875 0 0 0 0,-0.026 4.6875,4.6875 0 0 0 0,-0.01 v -67.2839 c 1.222,-8.5365 5.6378,-16.7033 12.1198,-22.3883 6.5515,-5.746 15.3419,-9.0731 24.0564,-9.1022 z" id="path1945" style="color:#000000;fill:#ff4d4c;fill-opacity:1;stroke-linecap:round;stroke-linejoin:round;-inkscape-stroke:none"/>

<path d="m -4835.3471,3791.9675 c -1.6652,-0.026 -3.3335,0.1145 -4.9805,0.4212 -4.3921,0.8171 -8.5074,2.8015 -11.8817,5.7294 -4.6414,4.0275 -7.6677,9.6725 -8.4558,15.7672 a 4.6875,4.6875 0 0 0 0,0.238 4.6875,4.6875 0 0 0 -0.04,0.3607 v 19.0302 c 1.5503,-0.1661 3.1084,-0.2749 4.6729,-0.2802 1.5734,-0.01 3.1406,0.1015 4.7021,0.2582 v -18.6548 c 0.5376,-3.6584 2.4768,-7.2201 5.2661,-9.6405 2.093,-1.8161 4.7263,-3.0839 7.4506,-3.5907 2.7244,-0.5069 5.6391,-0.2716 8.2452,0.6702 a 4.6875,4.6875 0 0 0 6.0022,-2.8143 4.6875,4.6875 0 0 0 -2.8161,-6.0004 c -2.1008,-0.7592 -4.288,-1.233 -6.5003,-1.4136 -0.5531,-0.045 -1.1094,-0.072 -1.6644,-0.081 z" id="path2034" style="color:#000000;fill:#333333;fill-opacity:1;stroke-linecap:round;stroke-linejoin:round;-inkscape-stroke:none"/>

</g>

</g>

</svg>