<?xml version="1.0" ?>

<!-- Uploaded to: SVG Repo, www.svgrepo.com, Generator: SVG Repo Mixer Tools -->
<svg width="800px" height="800px" viewBox="0 0 281.25 281.25" id="svg2" version="1.1" xml:space="preserve" xmlns="http://www.w3.org/2000/svg" xmlns:cc="http://creativecommons.org/ns#" xmlns:dc="http://purl.org/dc/elements/1.1/" xmlns:rdf="http://www.w3.org/1999/02/22-rdf-syntax-ns#" xmlns:svg="http://www.w3.org/2000/svg">

<defs id="defs4"/>

<g id="layer1" transform="translate(6111.1064,-3106.6404)">

<g id="g17597" transform="translate(-2263.4485,-330.06551)">

<path d="m -3599.6196,3466.5598 a 4.6875,4.6875 0 0 0 -3.3728,1.2213 l -18.5101,16.9007 c -9.157,-8.3476 -20.7653,-13.8983 -33.0469,-15.7086 -2.7541,-0.406 -5.5296,-0.6258 -8.3075,-0.6592 -8.3337,-0.1003 -16.673,1.4642 -24.4061,4.6179 -10.3107,4.205 -19.416,11.1835 -26.1548,20.0482 a 4.6875,4.6875 0 0 0 -0.01,0.016 4.6875,4.6875 0 0 0 -0.7031,1.4429 4.6875,4.6875 0 0 0 -0.1025,0.4028 4.6875,4.6875 0 0 0 -0.1081,0.4193 4.6875,4.6875 0 0 0 0.013,1.1188 4.6875,4.6875 0 0 0 0,0.084 4.6875,4.6875 0 0 0 0.5292,1.5326 4.6875,4.6875 0 0 0 0.1996,0.3369 4.6875,4.6875 0 0 0 1.0308,1.1664 4.6875,4.6875 0 0 0 0.042,0.048 4.6875,4.6875 0 0 0 0.013,0.01 4.6875,4.6875 0 0 0 1.4575,0.7105 4.6875,4.6875 0 0 0 0.3827,0.097 4.6875,4.6875 0 0 0 0.4303,0.1099 l 35.2844,4.2078 0.8331,29.6704 a 4.6875,4.6875 0 0 0 0.04,0.2527 4.6875,4.6875 0 0 0 0.097,0.6042 4.6875,4.6875 0 0 0 0.1611,0.5841 4.6875,4.6875 0 0 0 0.249,0.5548 4.6875,4.6875 0 0 0 0.3076,0.5292 4.6875,4.6875 0 0 0 0.39,0.4779 4.6875,4.6875 0 0 0 0.4212,0.4157 4.6875,4.6875 0 0 0 0.509,0.368 4.6875,4.6875 0 0 0 0.5182,0.2948 4.6875,4.6875 0 0 0 0.5805,0.2215 4.6875,4.6875 0 0 0 0.5676,0.1502 4.6875,4.6875 0 0 0 0.26,0.068 l 33.7884,4.2334 4.2389,34.3049 a 4.6875,4.6875 0 0 0 0.062,0.2398 4.6875,4.6875 0 0 0 0.097,0.3754 4.6875,4.6875 0 0 0 0.5347,1.2506 4.6875,4.6875 0 0 0 0.09,0.2087 4.6875,4.6875 0 0 0 0.066,0.064 4.6875,4.6875 0 0 0 1.1316,1.106 4.6875,4.6875 0 0 0 0.3388,0.1996 4.6875,4.6875 0 0 0 1.2634,0.5072 4.6875,4.6875 0 0 0 0.2966,0.081 4.6875,4.6875 0 0 0 1.3477,0.044 4.6875,4.6875 0 0 0 0.3607,-0.062 4.6875,4.6875 0 0 0 0.051,-0.01 4.6875,4.6875 0 0 0 1.6479,-0.7068 4.6875,4.6875 0 0 0 0.013,-0.01 c 15.1732,-10.3922 24.9186,-27.8971 25.7574,-46.2689 0.7217,-15.8073 -5.1724,-31.5864 -15.8899,-43.1543 l 18.1549,-16.5766 a 4.6875,4.6875 0 0 0 0.3003,-6.6211 4.6875,4.6875 0 0 0 -3.2483,-1.5216 z m -63.349,11.1328 c 2.3622,0.027 4.7211,0.2111 7.0532,0.5549 11.6677,1.7199 22.7981,7.5203 30.8918,16.0986 a 4.6875,4.6875 0 0 0 0.062,0.046 4.6875,4.6875 0 0 0 0.1264,0.1098 4.6875,4.6875 0 0 0 0.081,0.1081 c 10.8553,9.7937 17.1189,24.7917 16.4521,39.3969 -0.5753,12.5991 -6.3556,24.9938 -15.4322,33.8123 l -3.6438,-29.4873 a 4.6875,4.6875 0 0 0 -0.01,-0.024 4.6875,4.6875 0 0 0 -0.2929,-1.1243 4.6875,4.6875 0 0 0 -0.027,-0.068 4.6875,4.6875 0 0 0 -0.5676,-1.0035 4.6875,4.6875 0 0 0 -0.048,-0.06 4.6875,4.6875 0 0 0 -0.8094,-0.824 4.6875,4.6875 0 0 0 -0.051,-0.037 4.6875,4.6875 0 0 0 -2.1625,-0.9173 4.6875,4.6875 0 0 0 -0.062,-0.011 4.6875,4.6875 0 0 0 -0.042,-0.01 l -33.4186,-4.1877 -0.8331,-29.696 a 4.6875,4.6875 0 0 0 -0.01,-0.039 4.6875,4.6875 0 0 0 -0.1831,-1.1352 4.6875,4.6875 0 0 0 -0.022,-0.07 4.6875,4.6875 0 0 0 -0.476,-1.062 4.6875,4.6875 0 0 0 -0.026,-0.04 4.6875,4.6875 0 0 0 -0.747,-0.9228 4.6875,4.6875 0 0 0 -0.017,-0.015 4.6875,4.6875 0 0 0 -0.9815,-0.7086 4.6875,4.6875 0 0 0 -0.01,0 4.6875,4.6875 0 0 0 -1.1077,-0.423 4.6875,4.6875 0 0 0 -0.051,-0.013 4.6875,4.6875 0 0 0 -0.509,-0.093 l -30.3425,-3.6182 c 4.7742,-4.5061 10.3825,-8.1453 16.4466,-10.6183 6.5484,-2.6706 13.6702,-4.0017 20.7568,-3.9203 z" id="path1734" style="color:#000000;fill:#333333;fill-opacity:1;stroke-linecap:round;stroke-linejoin:round;-inkscape-stroke:none"/>

<path d="m -3703.6894,3501.2547 c -9.5708,12.0983 -20.9818,22.7518 -33.7299,31.4337 -12.6654,8.6256 -26.954,15.4882 -40.545,24.2944 -13.6205,8.8253 -26.8207,20.0035 -34.411,35.2863 -6.6188,13.3266 -8.2945,28.9054 -4.6637,43.3355 3.6061,14.3319 12.3644,27.1791 24.375,35.7862 10.8462,9.7619 24.9445,15.6867 39.5105,16.593 14.6524,0.9117 29.4645,-3.2696 41.4752,-11.7114 10.084,-7.0878 17.7313,-16.703 24.1058,-26.5961 6.3676,-9.8823 11.5827,-20.1348 17.4408,-29.6649 10.3491,-16.8359 23.1281,-32.1813 37.7857,-45.4395 l -1.388,-11.2408 c -17.3841,14.7985 -32.429,32.3214 -44.3847,51.7712 -6.1217,9.9587 -11.3095,20.1468 -17.3328,29.4946 -6.0162,9.337 -12.9856,17.9381 -21.6174,24.0052 -10.2229,7.1854 -23.0327,10.8028 -35.5042,10.0268 -12.4714,-0.776 -24.7328,-5.9545 -33.9862,-14.3518 a 4.6875,4.6875 0 0 0 -0.084,-0.044 4.6875,4.6875 0 0 0 -0.3552,-0.3076 c -10.2629,-7.2778 -17.8791,-18.407 -20.9491,-30.608 -3.0699,-12.2009 -1.6267,-25.6093 3.9697,-36.8774 6.4613,-13.0097 18.221,-23.2388 31.1114,-31.5912 12.92,-8.3714 27.2801,-15.2555 40.7245,-24.4116 15.1075,-10.2887 28.4108,-23.1714 39.2359,-37.8973 z" id="path1762" style="color:#000000;fill:#355fd1;fill-opacity:1;stroke-linecap:round;stroke-linejoin:round;-inkscape-stroke:none"/>

</g>

</g>

</svg>