<?xml version="1.0" ?>

<!-- Uploaded to: SVG Repo, www.svgrepo.com, Generator: SVG Repo Mixer Tools -->
<svg width="800px" height="800px" viewBox="0 0 281.25 281.25" id="svg2" version="1.1" xml:space="preserve" xmlns="http://www.w3.org/2000/svg" xmlns:cc="http://creativecommons.org/ns#" xmlns:dc="http://purl.org/dc/elements/1.1/" xmlns:rdf="http://www.w3.org/1999/02/22-rdf-syntax-ns#" xmlns:svg="http://www.w3.org/2000/svg">

<defs id="defs4"/>

<g id="layer1" transform="translate(6402.3564,-4296.9987)">

<g id="g31697" transform="translate(-2269.2425,-389.12259)">

<path d="m -4043.383,4779.0067 a 4.6875,4.6875 0 0 0 -0.3699,0.073 4.6875,4.6875 0 0 0 -0.2563,-0.033 c -14.1652,1.9133 -27.2426,9.7973 -35.5481,21.4307 -8.5118,11.9223 -11.5086,26.7027 -11.0285,40.7995 0.7792,22.88 10.0958,44.0304 20.149,63.5102 3.9318,7.6184 8.2455,15.5866 14.6392,22.3352 6.4503,6.8084 15.1917,12.2452 25.2228,12.865 8.0253,0.4958 16.0288,-2.2669 22.0606,-7.5733 a 4.6875,4.6875 0 0 0 0.024,-0.015 c 4.226,-3.2432 9.5407,-5.1768 14.8626,-5.4071 6.066,-0.2625 12.322,1.7106 17.1387,5.4071 a 4.6875,4.6875 0 0 0 0.029,0.018 c 6.0312,5.3041 14.0315,8.0653 22.0551,7.5696 10.0311,-0.6198 18.7724,-6.0566 25.2227,-12.865 6.3937,-6.7486 10.7094,-14.7168 14.6412,-22.3352 10.0531,-19.4798 19.3697,-40.6302 20.1489,-63.5102 0.4801,-14.0968 -2.5185,-28.8791 -11.0303,-40.8014 -8.3055,-11.6334 -21.381,-19.5155 -35.5463,-21.4288 a 4.6875,4.6875 0 0 0 -0.6244,-0.04 z m 0.3589,9.375 h 101.0705 c 11.4053,1.6203 22.2087,8.1689 28.9014,17.5434 6.9696,9.7622 9.7175,22.5003 9.2908,35.0317 -0.6986,20.5116 -9.2527,40.4295 -19.1107,59.5313 -3.8579,7.4751 -7.828,14.6059 -13.1159,20.1873 -5.2315,5.5218 -12.0718,9.5278 -18.9935,9.9555 -5.552,0.343 -11.3828,-1.6969 -15.5091,-5.4273 a 4.6875,4.6875 0 0 0 -0.015,-0.01 4.6875,4.6875 0 0 0 -0.2765,-0.2325 c -6.6134,-5.0754 -14.9202,-7.6994 -23.2489,-7.3389 -7.2877,0.3154 -14.3822,2.8979 -20.1691,7.3389 a 4.6875,4.6875 0 0 0 -0.1886,0.1886 4.6875,4.6875 0 0 0 -0.1007,0.051 c -4.1263,3.7304 -9.9552,5.7703 -15.5072,5.4273 -6.9217,-0.4277 -13.762,-4.4337 -18.9935,-9.9555 -5.2879,-5.5814 -9.2579,-12.7122 -13.1158,-20.1873 -9.8581,-19.1018 -18.4122,-39.0197 -19.1108,-59.5313 -0.4267,-12.5314 2.3194,-25.2695 9.289,-35.0317 6.6927,-9.3745 17.4979,-15.9231 28.9032,-17.5434 z m 89.0368,16.6425 c -2.6446,0.059 -5.2816,0.5031 -7.8186,1.3348 a 4.6875,4.6875 0 0 0 -2.9956,5.9143 4.6875,4.6875 0 0 0 5.9143,2.9938 c 3.7291,-1.2225 7.9835,-1.1387 11.662,0.2289 3.6784,1.3676 6.9548,4.0833 8.9795,7.4451 2.6048,4.3249 3.2169,10.0401 1.5875,14.8187 a 4.6875,4.6875 0 0 0 2.9242,5.9491 4.6875,4.6875 0 0 0 5.9491,-2.9242 c 2.559,-7.5046 1.661,-15.8874 -2.4298,-22.6795 -3.1485,-5.2276 -8.022,-9.2698 -13.742,-11.3964 -2.86,-1.0633 -5.8746,-1.6254 -8.8971,-1.6846 -0.3778,-0.01 -0.7556,-0.01 -1.1335,0 z" id="path8912" style="color:#000000;fill:#ff4d4c;fill-opacity:1;stroke-linecap:round;stroke-linejoin:round;-inkscape-stroke:none"/>

<path d="m -4027.4034,4713.4495 c -5.2285,0.042 -10.4418,1.027 -15.3332,2.9278 a 4.6875,4.6875 0 0 0 -0.1923,0.1117 4.6875,4.6875 0 0 0 -0.6281,0.3662 4.6875,4.6875 0 0 0 -0.5969,0.4267 4.6875,4.6875 0 0 0 -0.4852,0.5438 4.6875,4.6875 0 0 0 -0.4303,0.5841 4.6875,4.6875 0 0 0 -0.2985,0.6775 4.6875,4.6875 0 0 0 -0.2252,0.683 4.6875,4.6875 0 0 0 -0.071,0.2142 c -1.5322,9.3059 0.7687,19.0187 6.3116,26.6492 5.5429,7.6305 14.0661,12.8184 23.3899,14.2383 5.9354,0.9039 11.9993,0.232 17.569,-1.8055 -1.3937,6.5458 -1.4701,13.3591 -0.1794,19.9402 h 9.6112 c -2.3214,-9.5013 -1.045,-19.9938 3.6071,-28.5717 5.7994,-10.6935 17.0215,-18.5596 29.0516,-20.365 a 4.6875,4.6875 0 0 0 3.9404,-5.3321 4.6875,4.6875 0 0 0 -5.3302,-3.9386 c -11.8552,1.7792 -22.7709,8.0402 -30.4285,17.1497 -2.4139,-5.013 -5.7826,-9.5566 -9.9243,-13.3099 -5.9255,-5.37 -13.3089,-9.0235 -21.1725,-10.4773 -1.9658,-0.3634 -3.9525,-0.5871 -5.9436,-0.6739 -0.7466,-0.033 -1.4943,-0.044 -2.2412,-0.038 z m 0.6647,9.3786 c 1.953,0.016 3.9027,0.1994 5.8154,0.553 6.1208,1.1316 11.9698,4.0252 16.582,8.205 4.4159,4.0019 7.7574,9.2581 9.56,14.9542 -5.5522,4.1615 -12.9447,6.1023 -19.7699,5.0629 -6.7585,-1.0292 -13.1991,-4.95 -17.2174,-10.481 -3.4843,-4.7971 -5.2509,-10.951 -4.9347,-16.9006 3.2228,-0.9494 6.5988,-1.4214 9.9646,-1.3935 z" id="path9362" style="color:#000000;fill:#333333;fill-opacity:1;stroke-linecap:round;stroke-linejoin:round;-inkscape-stroke:none"/>

</g>

</g>

</svg>