<?xml version="1.0" ?>

<!-- Uploaded to: SVG Repo, www.svgrepo.com, Generator: SVG Repo Mixer Tools -->
<svg width="800px" height="800px" viewBox="0 0 281.25 281.25" id="svg2" version="1.1" xml:space="preserve" xmlns="http://www.w3.org/2000/svg" xmlns:cc="http://creativecommons.org/ns#" xmlns:dc="http://purl.org/dc/elements/1.1/" xmlns:rdf="http://www.w3.org/1999/02/22-rdf-syntax-ns#" xmlns:svg="http://www.w3.org/2000/svg">

<defs id="defs4"/>

<g id="layer1" transform="translate(6693.6064,-3994.3706)">

<g id="g28046" transform="translate(-2277.0017,-364.99005)">

<path d="m -4272.8984,4392.288 c -1.5603,-0.028 -3.1214,-0.01 -4.6783,0.059 -6.2277,0.2643 -12.4074,1.2595 -18.3802,2.8363 -11.9298,3.1495 -23.0253,8.5518 -33.2592,14.9524 -11.0215,6.8931 -21.4321,15.1915 -29.87,25.4553 -8.4509,10.2796 -14.8442,22.5576 -17.2412,35.9326 -3.0349,16.934 0.7832,35.2623 11.8798,48.783 9.6417,11.7479 24.2211,19.0395 39.4043,19.704 a 4.6875,4.6875 0 0 0 0.088,-0.02 4.6875,4.6875 0 0 0 0.1172,0.024 h 98.4906 a 4.6875,4.6875 0 0 0 0.4468,-0.09 4.6875,4.6875 0 0 0 0.2911,0.031 c 18.2914,-2.92 34.7481,-14.5353 43.6249,-30.7928 9.6917,-17.7498 9.7442,-39.9594 0.5273,-57.8943 -8.4645,-16.4709 -23.2529,-27.8626 -37.5439,-37.7051 -11.9217,-8.2108 -24.8826,-16.3539 -39.9115,-19.6582 -4.6211,-1.016 -9.3046,-1.5331 -13.9856,-1.6168 z m -0.1776,9.3768 c 4.1054,0.072 8.1788,0.5219 12.1509,1.3953 12.9485,2.8469 24.9366,10.1852 36.6064,18.2226 13.9671,9.6194 27.3059,20.2236 34.5246,34.2701 7.7517,15.084 7.68,34.2844 -0.4194,49.118 -7.373,13.5034 -21.3889,23.4424 -36.5661,25.968 h -97.9303 c -12.3916,-0.5654 -24.6228,-6.6917 -32.4921,-16.2799 -9.1021,-11.0905 -12.4822,-26.7751 -9.9005,-41.1804 2.0602,-11.4951 7.6636,-22.3953 15.2582,-31.6333 7.6074,-9.2537 17.1975,-16.9586 27.5976,-23.4631 9.6584,-6.0406 19.9275,-10.9942 30.683,-13.8337 6.7124,-1.772 13.6453,-2.7034 20.4877,-2.5836 z m 68.5767,75.4871 a 4.6875,4.6875 0 0 0 -4.2096,3.8543 c -1.0246,5.8001 -3.9381,11.3367 -8.1391,15.4651 -4.743,4.6613 -11.2769,7.6285 -17.9077,8.1372 a 4.6875,4.6875 0 0 0 -4.314,5.0336 4.6875,4.6875 0 0 0 5.03,4.3158 c 8.8969,-0.6825 17.3973,-4.5468 23.7615,-10.8014 5.6236,-5.5265 9.4298,-12.7562 10.8014,-20.5206 a 4.6875,4.6875 0 0 0 -3.8012,-5.4309 4.6875,4.6875 0 0 0 -1.2213,-0.053 z" id="path6834" style="color:#000000;fill:#355fd1;fill-opacity:1;stroke-linecap:round;stroke-linejoin:round;-inkscape-stroke:none"/>

<path d="m -4300.9831,4540.0138 -4.8523,62.6331 a 4.6875,4.6875 0 0 0 0.013,0.1556 4.6875,4.6875 0 0 0 -0.027,0.2069 4.6875,4.6875 0 0 0 0.1117,0.857 4.6875,4.6875 0 0 0 0.039,0.2856 4.6875,4.6875 0 0 0 0.5218,1.2579 4.6875,4.6875 0 0 0 0.1996,0.26 4.6875,4.6875 0 0 0 0.672,0.7837 4.6875,4.6875 0 0 0 0.3699,0.2857 4.6875,4.6875 0 0 0 0.7727,0.4706 4.6875,4.6875 0 0 0 0.4541,0.1886 4.6875,4.6875 0 0 0 0.8807,0.2105 4.6875,4.6875 0 0 0 0.3058,0.073 4.6875,4.6875 0 0 0 0.1557,-0.013 4.6875,4.6875 0 0 0 0.205,0.027 h 51.1396 a 4.6875,4.6875 0 0 0 0.2069,-0.027 4.6875,4.6875 0 0 0 0.1556,0.013 4.6875,4.6875 0 0 0 0.7801,-0.1355 4.6875,4.6875 0 0 0 0.119,-0.029 4.6875,4.6875 0 0 0 1.0638,-0.4413 4.6875,4.6875 0 0 0 0.029,-0.015 4.6875,4.6875 0 0 0 0.9229,-0.7086 4.6875,4.6875 0 0 0 0.075,-0.081 4.6875,4.6875 0 0 0 0.6665,-0.868 4.6875,4.6875 0 0 0 0.06,-0.099 4.6875,4.6875 0 0 0 0.4376,-1.0566 4.6875,4.6875 0 0 0 0.013,-0.038 4.6875,4.6875 0 0 0 0.152,-1.1554 4.6875,4.6875 0 0 0 0.01,-0.046 4.6875,4.6875 0 0 0 -0.011,-0.2289 4.6875,4.6875 0 0 0 0,-0.1336 l -4.8523,-62.6331 h -9.4024 l 4.5153,58.3081 h -41.0064 l 4.519,-58.3081 z" id="path6820" style="color:#000000;fill:#333333;fill-opacity:1;stroke-linecap:round;stroke-linejoin:round;-inkscape-stroke:none"/>

</g>

</g>

</svg>