<?xml version="1.0" ?>

<!-- Uploaded to: SVG Repo, www.svgrepo.com, Generator: SVG Repo Mixer Tools -->
<svg width="800px" height="800px" viewBox="0 0 281.25 281.25" id="svg2" version="1.1" xml:space="preserve" xmlns="http://www.w3.org/2000/svg" xmlns:cc="http://creativecommons.org/ns#" xmlns:dc="http://purl.org/dc/elements/1.1/" xmlns:rdf="http://www.w3.org/1999/02/22-rdf-syntax-ns#" xmlns:svg="http://www.w3.org/2000/svg">

<defs id="defs4"/>

<g id="layer1" transform="translate(7276.1064,-3994.3706)">

<g id="g29815" transform="translate(-2245.3867,-363.38183)">

<path d="m -4890.0938,4389.0598 c -39.5035,0 -71.4533,31.9481 -71.4533,71.4514 v 75.7325 c 0,39.5034 31.9498,71.4514 71.4533,71.4514 39.5033,0 71.4514,-31.948 71.4514,-71.4514 v -75.7325 c 0,-39.5033 -31.9481,-71.4514 -71.4514,-71.4514 z m 0,9.375 c 34.4717,0 62.0764,27.6046 62.0764,62.0764 v 75.7325 c 0,34.4718 -27.6047,62.0764 -62.0764,62.0764 -34.4719,0 -62.0783,-27.6046 -62.0783,-62.0764 v -75.7325 c 0,-34.4718 27.6064,-62.0764 62.0783,-62.0764 z" id="rect5664" style="color:#000000;fill:#333333;fill-opacity:1;stroke-linecap:round;stroke-linejoin:round;-inkscape-stroke:none"/>

<g id="g29716" style="fill:#fba021;fill-opacity:1">

<path d="m -4914.7168,4436.4102 a 4.6875,4.6875 0 0 0 -4.6875,4.6875 4.6875,4.6875 0 0 0 4.6875,4.6875 h 20.3613 a 4.6875,4.6875 0 0 0 4.6875,-4.6875 4.6875,4.6875 0 0 0 -4.6875,-4.6875 z" id="path6001" style="color:#000000;fill:#fba021;fill-opacity:1;stroke-linecap:round;stroke-linejoin:round;-inkscape-stroke:none"/>

<path d="m -4872.8105,4479.5 a 4.6875,4.6875 0 0 0 -4.6875,4.6875 4.6875,4.6875 0 0 0 4.6875,4.6875 h 20.3593 a 4.6875,4.6875 0 0 0 4.6875,-4.6875 4.6875,4.6875 0 0 0 -4.6875,-4.6875 z" id="path6001-4" style="color:#000000;fill:#fba021;fill-opacity:1;stroke-linecap:round;stroke-linejoin:round;-inkscape-stroke:none"/>

<path d="m -4926.3184,4519.2754 a 4.6875,4.6875 0 0 0 -4.6875,4.6875 4.6875,4.6875 0 0 0 4.6875,4.6875 h 20.3614 a 4.6875,4.6875 0 0 0 4.6875,-4.6875 4.6875,4.6875 0 0 0 -4.6875,-4.6875 z" id="path6001-8" style="color:#000000;fill:#fba021;fill-opacity:1;stroke-linecap:round;stroke-linejoin:round;-inkscape-stroke:none"/>

<path d="m -4893.1719,4559.5234 a 4.6875,4.6875 0 0 0 -4.6875,4.6875 4.6875,4.6875 0 0 0 4.6875,4.6875 h 20.3614 a 4.6875,4.6875 0 0 0 4.6875,-4.6875 4.6875,4.6875 0 0 0 -4.6875,-4.6875 z" id="path6001-3" style="color:#000000;fill:#fba021;fill-opacity:1;stroke-linecap:round;stroke-linejoin:round;-inkscape-stroke:none"/>

</g>

</g>

</g>

</svg>